Coordinates
version=1
nRows=13
nColumns=27
inDegrees=yes

Units are S.I. units (second, meters, Newtons, ...)
If the header above contains a line with 'inDegrees', this indicates whether rotational values are in degrees (yes) or radians (no).

endheader
time	pelvis_rotation	pelvis_tilt	pelvis_list	pelvis_tx	pelvis_ty	pelvis_tz	hip_flexion_r	hip_adduction_r	hip_rotation_r	knee_angle_r	knee_rotation_r	knee_adduction_r	knee_angle_r_beta	ankle_angle_r	subtalar_angle_r	mtp_angle_r	hip_flexion_l	hip_adduction_l	hip_rotation_l	knee_angle_l	knee_rotation_l	knee_adduction_l	knee_angle_l_beta	ankle_angle_l	subtalar_angle_l	mtp_angle_l
      2.03500000	     -5.33316726	    -33.67991264	      1.21972054	     -0.06310174	      0.88083819	     -1.20758091	     61.86414301	    -11.44406398	    -16.86032413	     31.16364688	      2.20605894	      7.69174510	      0.54390824	     -0.07941310	      3.15348697	      0.00000000	     57.67391345	    -14.21622274	    -19.86051194	     28.32221321	      2.38633065	     -5.32207134	      0.49431587	     -0.09200645	      7.44430432	      0.00000000
      2.04000000	     -4.85631815	    -33.25048013	      1.01005739	     -0.06170043	      0.88157016	     -1.20766005	     60.94783978	    -11.57232190	    -17.72451824	     30.79544663	      2.19603730	      7.81384431	      0.53748194	     -0.09130835	      3.17177865	      0.00000000	     57.22614824	    -13.99314984	    -19.15161856	     28.04789647	      2.32769847	     -5.18358533	      0.48952814	     -0.15421464	      7.44165864	      0.00000000
      2.04500000	     -4.95598075	    -32.97301344	      0.97945280	     -0.06072275	      0.88204263	     -1.20761338	     60.51251891	    -11.44517512	    -17.63642430	     30.59411561	      2.15698510	      7.74399690	      0.53396805	     -0.11382971	      3.17958585	      0.00000000	     56.73550668	    -14.01642950	    -19.28884277	     27.85158092	      2.33279619	     -5.16346986	      0.48610179	     -0.15262569	      7.48273428	      0.00000000
      2.05000000	     -4.90654152	    -32.78386455	      0.71555142	     -0.05982992	      0.88252028	     -1.20740282	     60.03213173	    -11.24146197	    -17.92017785	     30.29479739	      2.11148061	      7.70027440	      0.52874396	     -0.16892790	      3.13540263	      0.00000000	     56.50804400	    -14.13789152	    -18.97147867	     27.76585651	      2.36314483	     -5.04858336	      0.48460562	     -0.12182229	      7.56412443	      0.00000000
      2.05500000	     -5.18040855	    -32.99096374	      0.53193869	     -0.05971904	      0.88264953	     -1.20718179	     60.22136253	    -10.89496954	    -17.52866308	     30.17371043	      2.10687662	      7.48009108	      0.52663059	     -0.27406504	      2.94216748	      0.00000000	     56.71868096	    -14.39833708	    -18.99407219	     27.88408174	      2.36632684	     -4.85057516	      0.48666904	     -0.00570805	      7.82568120	      0.00000000
      2.06000000	     -5.04551282	    -32.32169026	      0.64401463	     -0.05801399	      0.88335577	     -1.20732837	     59.27569011	    -11.02168394	    -17.80757654	     29.94369108	      2.03057116	      7.54697731	      0.52261600	     -0.19851216	      3.21374655	      0.00000000	     55.68812848	    -14.16828272	    -19.10973824	     27.43043487	      2.37727373	     -4.94359281	      0.47875140	     -0.12337644	      7.64032467	      0.00000000
      2.06500000	     -5.33413674	    -32.73806202	      0.45307374	     -0.05825745	      0.88333407	     -1.20703409	     59.74899001	    -10.65039936	    -17.32559769	     29.89910846	      2.01516372	      7.27418919	      0.52183789	     -0.26895896	      3.00879483	      0.00000000	     56.17532886	    -14.47372343	    -18.99912701	     27.64287047	      2.45324470	     -4.70761462	      0.48245910	      0.00110473	      7.78565174	      0.00000000
      2.07000000	     -4.86732704	    -31.79681534	     -0.12637349	     -0.05582729	      0.88442937	     -1.20670237	     57.97305661	    -10.48829693	    -18.75434040	     29.15841744	      1.96064233	      7.55736760	      0.50891039	     -0.35489779	      3.06656855	      0.00000000	     55.16754484	    -14.56692975	    -18.26517678	     27.31787205	      2.43395929	     -4.78874591	      0.47678681	     -0.01146401	      7.82925035	      0.00000000
      2.07500000	     -4.45248225	    -31.57475055	     -0.44471516	     -0.05475167	      0.88496103	     -1.20662232	     57.29517867	    -10.46550261	    -19.52914116	     28.79235572	      1.99028978	      7.63240324	      0.50252141	     -0.40144920	      3.00694231	      0.00000000	     55.04035591	    -14.51876860	    -17.44781523	     27.22243178	      2.41098769	     -4.56015112	      0.47512106	     -0.03117063	      7.89792656	      0.00000000
      2.08000000	     -4.35817485	    -32.77712467	     -0.53014824	     -0.05688391	      0.88419054	     -1.20663884	     58.87838035	    -10.40167873	    -18.83087608	     29.19974137	      1.99460456	      6.61632656	      0.50963163	     -0.36343211	      3.35145492	      0.00000000	     56.78644189	    -14.49502584	    -16.29479078	     27.75843638	      2.46524017	     -3.59557940	      0.48447611	      0.09765131	      8.15020736	      0.00000000
      2.08500000	     -4.55278814	    -31.35756753	     -0.75682184	     -0.05315964	      0.88559529	     -1.20630939	     56.74574623	    -10.09880682	    -19.61993178	     28.41918288	      1.94202569	      7.54266521	      0.49600831	     -0.48752635	      2.90215422	      0.00000000	     54.70251960	    -14.75772405	    -17.24861183	     27.15982226	      2.44257400	     -4.37124247	      0.47402832	      0.07776706	      8.06723126	      0.00000000
      2.09000000	     -4.24135753	    -30.33513748	     -0.94539423	     -0.05067162	      0.88644338	     -1.20620064	     55.16270737	    -10.06934179	    -20.56143712	     27.95165634	      1.81188867	      7.77050470	      0.48784843	     -0.42774515	      3.21567670	      0.00000000	     53.41166876	    -14.70414606	    -17.14410885	     26.77916906	      2.40825123	     -4.64182468	      0.46738467	      0.06840399	      8.00419622	      0.00000000
      2.09500000	     -5.13829380	    -31.96360509	      0.11835319	     -0.05419391	      0.88494076	     -1.20695011	     58.21054865	    -10.31007609	    -17.30988595	     29.20188891	      1.90971388	      6.32084339	      0.50966911	     -0.19321166	      3.42348873	      0.00000000	     55.03169560	    -14.31709734	    -18.04513652	     27.18206668	      2.32228260	     -3.77198910	      0.47441656	      0.12049936	      8.25130458	      0.00000000
